PathFileType	4	(X/Y/Z)	RBDS025\RBDS025runT25.trc
DataRate	CameraRate	NumFrames	NumMarkers	Units	OrigDataRate	OrigDataStartFrame	OrigNumFrames
150.000000	150.000000	6	33	mm	150.000000	0	4500
Frame#	Time	L.ASIS			L.Heel.Bottom			L.Heel.Lateral			L.Heel.Top			L.Iliac.Crest			L.MT1			L.MT5			L.PSIS			L.Shank.Bottom.Lateral			L.Shank.Bottom.Medial			L.Shank.Top.Lateral			L.Shank.Top.Medial			L.Thigh.Bottom.Lateral			L.Thigh.Bottom.Medial			L.Thigh.Top.Lateral			L.Thigh.Top.Medial			R.ASIS			R.ASY			R.Heel.Bottom			R.Heel.Lateral			R.Heel.Top			R.Iliac.Crest			R.MT1			R.MT5			R.PSIS			R.Shank.Bottom.Lateral			R.Shank.Bottom.Medial			R.Shank.Top.Lateral			R.Shank.Top.Medial			R.Thigh.Bottom.Lateral			R.Thigh.Bottom.Medial			R.Thigh.Top.Lateral			R.Thigh.Top.Medial			
		X1	Y1	Z1	X2	Y2	Z2	X3	Y3	Z3	X4	Y4	Z4	X5	Y5	Z5	X6	Y6	Z6	X7	Y7	Z7	X8	Y8	Z8	X9	Y9	Z9	X10	Y10	Z10	X11	Y11	Z11	X12	Y12	Z12	X13	Y13	Z13	X14	Y14	Z14	X15	Y15	Z15	X16	Y16	Z16	X17	Y17	Z17	X18	Y18	Z18	X19	Y19	Z19	X20	Y20	Z20	X21	Y21	Z21	X22	Y22	Z22	X23	Y23	Z23	X24	Y24	Z24	X25	Y25	Z25	X26	Y26	Z26	X27	Y27	Z27	X28	Y28	Z28	X29	Y29	Z29	X30	Y30	Z30	X31	Y31	Z31	X32	Y32	Z32	X33	Y33	Z33	

1	0	2169.473409588354	890.1129722723862	879.8300456698804	1933.906053581648	35.99387505003545	977.9654543900573	1957.833174824016	57.718691230022	932.6696326898312	1947.901613371647	79.05482839436822	980.0893501615501	2084.949048267269	953.3005469376303	830.0917831288526	2147.591110825822	35.88141647732682	990.6302066805533	2104.062888862551	42.30246504660204	882.9880733273689	2007.992747844813	940.880265282189	940.2676175166074	2067.163910958856	159.607408867308	909.0242020780639	2021.742952851512	187.1256600491372	925.7064678928826	2098.996447346557	229.2774049571779	883.9699488463787	2054.599934574821	256.4728206146319	898.5615796526781	2171.164519706176	546.4317514361142	830.4253734473893	2110.148197636994	524.4812742427544	863.1048907763268	2126.341499489712	644.7638475344512	814.7946436783802	2070.382418002009	625.7469012549969	851.2844305030141	2185.780683275109	882.2657879143602	1081.803049182929	1843.958610692905	184.5431387516118	1098.190158804641	1726.471042757056	325.724663561836	1047.148912206271	1753.94918678757	320.4180724780007	1092.363248833789	1769.726657468629	335.5228652379861	1047.225503468256	2129.94990106253	939.2700956534031	1129.101742958474	1820.99828018373	134.4932424109804	1061.183645345767	1794.979969388708	181.9065575663161	1158.970491898878	2018.587323735539	933.1535806200284	1041.498724436566	1899.795103123429	333.0061375518122	1118.376609254091	1889.325029982691	367.2628568041491	1081.649559093545	1976.514636878235	368.8015253365415	1126.302705351651	1961.428241178248	403.0332159680365	1088.520723914099	2162.421382510315	511.5412007473692	1142.676534578831	2105.169550050914	497.7276094541596	1102.145052027248	2126.473088524751	616.0076854669468	1157.080650149269	2070.993871675896	601.2409641818213	1120.196098849477	
2	0.006666666666666667	2168.192474075826	891.6131104091503	879.2284002379886	1917.413007470184	37.19494285625186	978.0108668280822	1941.461837917152	58.81808682953007	932.7285240695095	1931.575701449274	80.20597044320215	980.1486529328803	2085.301809990958	956.3053225034793	830.6579125973897	2130.924062617726	35.66981949428201	990.8377110175196	2087.486337097321	42.34400022042481	883.2133193665323	2007.038006042031	943.0039788518499	940.4114740809887	2051.847038568957	160.2981971531562	909.3124635124123	2006.766241369982	188.3200924546843	926.003937036214	2084.500354227981	229.6334092931919	884.3566795216135	2040.430490789862	257.3122719940415	898.9699526036302	2162.821069451361	546.2341433914312	830.9823460437113	2101.138093686533	525.7568041683992	863.3772854624424	2120.390303620919	645.5769067561658	815.1157230548354	2063.855112781603	627.9096874784353	851.4654097747059	2184.909887746992	884.7555095644983	1081.229896250162	1862.693849278361	180.1454888819709	1097.70212705806	1738.660996049093	316.0385810275799	1047.965294816	1766.628006947863	311.8518522972818	1092.957560091749	1781.518904505922	327.6714632242545	1047.823299591552	2128.227899188457	941.4659805581272	1128.742413188044	1841.582835955034	129.2076054503638	1060.671684218229	1814.218083977713	175.229693641916	1158.781165648482	2017.60104702904	935.4315644736832	1041.671794181899	1912.806140531807	329.7040132817654	1118.030042628426	1900.823674718497	363.8214418759179	1081.67211497074	1988.239392697043	368.0466554601508	1125.874227269563	1971.805498139964	401.9504182406777	1088.384044485256	2170.705578608732	516.6226388857502	1142.592152646056	2113.883972700782	500.9292951833388	1102.392591676226	2132.056455138392	619.7816841551273	1156.938381214051	2076.642616668407	603.1837197146702	1120.712033790545	
3	0.01333333333333333	2166.972434792548	893.2216968551793	878.6461412512028	1900.929173166087	38.59098644695212	978.01589322195	1925.112277720755	60.06057299221722	932.7345206121762	1915.286289424675	81.54075419018308	980.1346844660607	2085.685208727323	959.3507435666671	831.1815314233054	2114.211640526411	35.50466331871471	991.0249264012383	2070.8888982897	42.39866996561114	883.4150581861862	2006.154930236045	945.2656745156052	940.5335940578326	2036.516274670162	161.1417612899936	909.5359762090712	1991.760657375964	189.649782716629	926.2444975939495	2069.963382036129	230.1562264527124	884.687379370644	2026.198083336639	258.3017958916432	899.3198012567491	2154.40657350652	546.2173558625203	831.5412970095913	2092.077810988028	527.247808996049	863.6692132603806	2114.415114350192	646.557626396961	815.4383210440193	2057.321499382148	630.2699717269247	851.6567367888699	2184.085160279079	887.3633037185899	1080.667768618771	1881.606159692681	175.7102650983718	1097.178951677417	1751.088231412458	306.1011576444984	1048.680021347601	1779.521116262929	303.0587388243216	1093.461095294606	1793.504839317721	319.5857350707986	1048.333042030858	2126.644793636039	943.8572817692946	1128.386250147027	1862.415254806657	123.924904887704	1060.109275710253	1833.682947069701	168.4976716194636	1158.526750003122	2016.668775204183	937.856989800919	1041.82572566626	1925.853981588728	326.3118275232875	1117.644068306289	1912.35430729991	360.2386759539712	1081.632286884294	1999.922047876933	367.2383219513238	1125.412771347935	1982.11973975477	400.7624932091913	1088.203442564883	2178.863785601032	521.8443363698316	1142.49776762536	2122.463883078348	504.3106465664275	1102.632660927489	2137.551385458177	623.7038836616799	1156.822622349503	2082.21157293453	605.3084324111794	1121.254809500857	
4	0.02	2165.871890649022	895.0373236365057	878.1075405074181	1884.457659575306	40.35266945164505	977.9582941714989	1908.797679742261	61.56692827121027	932.6528832482592	1899.064109354527	83.21936204715577	979.9944997725956	2086.132601677676	962.4843047792428	831.6281311768882	2097.41294772834	35.41478919738138	991.1755182121362	2054.245625023249	42.46570551157981	883.5735662528863	2005.412563955077	947.7957612789197	940.6153660154124	2021.151583973824	162.2733561052247	909.6348818608868	1976.699036179179	191.2335779232571	926.386127513604	2055.339737346244	230.9933173736717	884.9088244830115	2011.84293581158	259.573819173886	899.5652168113157	2145.859770649731	546.5420435583032	832.0931549796732	2082.922204048304	529.1433815937115	863.9842507957641	2108.39616698717	647.8562796789304	815.7596264940054	2050.774348677521	633.0025371585856	851.8595942991444	2183.346828000126	890.2041016379712	1080.131852835868	1900.857545685484	171.1825181038553	1096.60205630517	1763.959697998354	295.6641498145715	1049.194698531105	1792.806125976459	293.8176365710571	1093.785655438468	1805.854197638984	311.0359696135172	1048.665625944095	2125.321300499893	946.6218531925476	1128.042028527002	1883.731369391546	118.6167286468027	1059.475477746211	1853.563170708273	161.6416011397981	1158.166532358817	2015.839666576964	940.5715519144823	1041.946255258827	1938.965608280817	322.7386857628575	1117.178678801788	1923.941359393001	356.3775410618804	1081.465780990747	2011.515698575959	366.3261227291777	1124.882910327821	1992.308436265777	399.3722825855233	1087.930201977314	2186.7822195602	527.3482261475637	1142.379921299672	2130.787637785512	508.050399171277	1102.850829730771	2142.87627277051	627.9220121033378	1156.750753192594	2087.630120884674	607.7951799248972	1121.833784302509	
5	0.02666666666666667	2164.941820016451	897.1334703104068	877.6363467684154	1868.018869003275	42.61640011732578	977.8241489448415	1892.545950835203	63.43365695227591	932.4601083486392	1882.952488020234	85.36912746838973	979.6906668226437	2086.67621043257	965.7443935898236	831.9745695498382	2080.512164796293	35.42001786816015	991.2760666087394	2037.552820774692	42.5430383259276	883.6717403042423	2004.86870568949	950.6942337054599	940.6435453491619	2005.755398745248	163.801579978183	909.5585866940165	1961.58129794191	193.1660650882893	926.3975746198729	2040.610201310235	232.2633513155341	884.9748604076626	1997.337830110401	261.2344413180629	899.6705924147275	2137.146935773417	547.3374971560141	832.6228384425046	2073.650321225453	531.5914915252176	864.31578522372	2102.32845666743	649.5921567420188	816.0729912208457	2044.21856081159	636.2424164895035	852.0686799456801	2182.726810085759	893.3648143810658	1079.63815647383	1920.565208461501	166.5240383842171	1095.959175446962	1777.442954260379	284.5390213663019	1049.423981912483	1806.62011945758	283.9619361091463	1093.855582309082	1818.702067591912	301.8468485703598	1048.744003264067	2124.347025919882	949.8890693903558	1127.721302757877	1905.707280016159	113.2681425198601	1058.761741628383	1873.991122627841	154.6169435457764	1157.672732829218	2015.153603632283	943.6840162979504	1042.024233009162	1952.155128961065	318.9122533677977	1116.599744997407	1935.600439240529	352.1286283336905	1081.11801766865	2022.972363389983	365.266631653195	1124.254998006292	2002.316250078662	397.6988142473187	1087.522153875099	2194.352978356785	533.2377338334961	1142.226874064512	2138.740710150388	512.2837797891143	1103.033022481464	2147.955192035017	632.5470224343295	1156.73185499928	2092.831269971671	610.7850782093049	1122.446639178379	
6	0.03333333333333333	2164.223546004974	899.5522759953745	877.2556098671646	1851.650008364805	45.47985879541142	977.6085571528371	1876.39826081323	65.73056473690579	932.1454824401438	1867.006352655988	88.07927836598488	979.2041264846109	2087.349007789853	969.1600724265207	832.2128601953435	2063.518216694408	35.52978497119847	991.3162767004002	2020.825957854812	42.62853154884061	883.6955688481579	2004.567308783822	954.0227344592117	940.6112879328795	1990.35253066479	165.8035031457133	909.2674312599695	1946.435698438685	195.5130802014791	926.2608047858841	2025.782871250158	234.0510193570473	884.8478185337643	1982.690911768256	263.3585162752961	899.6138178910137	2128.264363120059	548.6950601856589	833.1072725317506	2064.267417417997	534.6905589029797	864.6446004907131	2096.222277508826	651.8471232237102	816.3668338363681	2037.671466493786	640.0768759839416	852.2713448755726	2182.24629934876	896.8981696137311	1079.204114463763	1940.802521257946	161.7193581981562	1095.243158864597	1791.668916257321	272.6093609517786	1049.299841967573	1821.062559017278	273.3901827027804	1093.611447182547	1832.151787453809	291.908521570935	1048.506902974312	2123.770666528297	953.7296104076563	1127.438613713895	1928.45674171739	107.8839872967599	1057.970999818408	1895.04416031038	147.4098206246907	1157.031049827787	2014.639157859931	947.2620855495913	1042.056590154969	1965.430185880032	314.7811637156931	1115.880505701644	1947.345064114796	347.4144148052339	1080.547583768774	2034.250384174194	364.0224157528345	1123.507284814317	2012.104154634729	395.6782449158066	1086.946641425135	2201.474349766227	539.5662308709999	1142.028871272074	2146.215794031066	517.08987600886	1103.165844567359	2152.718519117898	637.6427438996517	1156.764151880385	2097.751128289036	614.3692964451473	1123.076450801027	
